<?xml version="1.0" encoding="utf-8"?>
<!-- Generator: Adobe Illustrator 18.1.1, SVG Export Plug-In . SVG Version: 6.00 Build 0)  -->
<svg version="1.1" id="Layer_1" xmlns="http://www.w3.org/2000/svg" xmlns:xlink="http://www.w3.org/1999/xlink" x="0px" y="0px"
	 viewBox="0 114 60 60" enable-background="new 0 114 60 60" xml:space="preserve">
<g>
	<rect x="2.2" y="116.6" fill="#CCCCCC" width="55.8" height="5.6"/>
	<rect x="2.2" y="128.9" fill="#CCCCCC" width="55.8" height="5.6"/>
	<rect x="2.2" y="141.3" fill="#CCCCCC" width="55.8" height="5.6"/>
	<g>
		<path stroke="#000000" stroke-miterlimit="10" d="M14.9,163.9c-0.1-2.2-0.3-4.8-0.2-6.7h-0.1c-0.5,1.8-1.2,3.8-2,5.9l-2.8,7.6H8.4
			l-2.5-7.4C5.1,161,4.5,159,4,157.1h0c0,1.9-0.2,4.6-0.3,6.9l-0.4,6.7H1.3l1.1-15.6H5l2.7,7.5c0.6,1.9,1.2,3.6,1.6,5.3h0.1
			c0.4-1.6,0.9-3.3,1.6-5.3l2.8-7.5h2.6l1,15.6h-2L14.9,163.9z"/>
		<path stroke="#000000" stroke-miterlimit="10" d="M28.5,163.4h-6.1v5.6h6.8v1.7h-8.8v-15.6h8.4v1.7h-6.4v4.9h6.1V163.4z"/>
		<path stroke="#000000" stroke-miterlimit="10" d="M31.8,170.7v-15.6H34l5,7.9c1.2,1.8,2.1,3.5,2.8,5.1l0,0c-0.2-2.1-0.2-4-0.2-6.4
			v-6.5h1.9v15.6h-2l-5-7.9c-1.1-1.7-2.1-3.5-2.9-5.2l-0.1,0c0.1,2,0.2,3.8,0.2,6.4v6.7H31.8z"/>
		<path stroke="#000000" stroke-miterlimit="10" d="M49,155.1v9.2c0,3.5,1.6,5,3.6,5c2.3,0,3.8-1.5,3.8-5v-9.2h2v9.1
			c0,4.8-2.5,6.8-5.9,6.8c-3.2,0-5.6-1.8-5.6-6.7v-9.2H49z"/>
	</g>
</g>
</svg>
